<?xml version="1.0" encoding="UTF-8"?>
<svg id="Layer_2" data-name="Layer 2" xmlns="http://www.w3.org/2000/svg" viewBox="0 0 423.81 423.87">
  <defs>
    <style>
      .cls-1 {
        fill: none;
        stroke: #000;
        stroke-linecap: round;
        stroke-linejoin: round;
        stroke-width: 8px;
      }
    </style>
  </defs>
  <g id="Layer_9" data-name="Layer 9">
    <g>
      <circle class="cls-1" cx="211.93" cy="211.94" r="52"/>
      <path class="cls-1" d="M327.42,250.62c-11.38,13.44-23.69,26.82-36.84,39.97-106.27,106.27-227.64,157.21-271.08,113.77-27.29-27.29-17.33-85.34,20.2-151.07"/>
      <path class="cls-1" d="M172.58,326.86c-13.21-11.22-26.37-23.34-39.3-36.27C27.01,184.32-23.93,62.95,19.51,19.51,46.64-7.61,104.15,2.06,169.41,39.04"/>
      <path class="cls-1" d="M96.39,173.25c11.38-13.44,23.69-26.82,36.84-39.97C239.5,27.01,360.87-23.93,404.31,19.51c27.29,27.29,17.33,85.34-20.2,151.07"/>
      <path class="cls-1" d="M251.23,97.01c13.21,11.22,26.37,23.34,39.3,36.27,106.27,106.27,157.21,227.64,113.77,271.08-27.13,27.13-84.64,17.45-149.9-19.53"/>
    </g>
  </g>
</svg>