<?xml version="1.0" encoding="UTF-8"?>
<svg id="Layer_2" data-name="Layer 2" xmlns="http://www.w3.org/2000/svg" viewBox="0 0 443.81 443.87">
  <defs>
    <style>
      .cls-1 {
        fill: none;
        stroke: #000;
        stroke-linecap: round;
        stroke-miterlimit: 10;
        stroke-width: 28px;
      }
    </style>
  </defs>
  <g id="Layer_9" data-name="Layer 9">
    <g>
      <circle class="cls-1" cx="221.93" cy="221.94" r="52"/>
      <path class="cls-1" d="M337.42,260.62c-11.38,13.44-23.69,26.82-36.84,39.97-106.27,106.27-227.64,157.21-271.08,113.77-27.29-27.29-17.33-85.34,20.2-151.07"/>
      <path class="cls-1" d="M182.58,336.86c-13.21-11.22-26.37-23.34-39.3-36.27C37.01,194.32-13.93,72.95,29.51,29.51,56.64,2.39,114.15,12.06,179.41,49.04"/>
      <path class="cls-1" d="M106.39,183.25c11.38-13.44,23.69-26.82,36.84-39.97C249.5,37.01,370.87-13.93,414.31,29.51c27.29,27.29,17.33,85.34-20.2,151.07"/>
      <path class="cls-1" d="M261.23,107.01c13.21,11.22,26.37,23.34,39.3,36.27,106.27,106.27,157.21,227.64,113.77,271.08-27.13,27.13-84.64,17.45-149.9-19.53"/>
    </g>
  </g>
</svg>