<?xml version="1.0" encoding="UTF-8"?>
<svg id="Layer_2" data-name="Layer 2" xmlns="http://www.w3.org/2000/svg" viewBox="0 0 439.81 439.87">
  <defs>
    <style>
      .cls-1 {
        fill: none;
        stroke: #000;
        stroke-linecap: round;
        stroke-miterlimit: 10;
        stroke-width: 24px;
      }
    </style>
  </defs>
  <g id="Layer_9" data-name="Layer 9">
    <g>
      <circle class="cls-1" cx="219.93" cy="219.94" r="52"/>
      <path class="cls-1" d="M335.42,258.62c-11.38,13.44-23.69,26.82-36.84,39.97-106.27,106.27-227.64,157.21-271.08,113.77-27.29-27.29-17.33-85.34,20.2-151.07"/>
      <path class="cls-1" d="M180.58,334.86c-13.21-11.22-26.37-23.34-39.3-36.27C35.01,192.32-15.93,70.95,27.51,27.51,54.64.39,112.15,10.06,177.41,47.04"/>
      <path class="cls-1" d="M104.39,181.25c11.38-13.44,23.69-26.82,36.84-39.97C247.5,35.01,368.87-15.93,412.31,27.51c27.29,27.29,17.33,85.34-20.2,151.07"/>
      <path class="cls-1" d="M259.23,105.01c13.21,11.22,26.37,23.34,39.3,36.27,106.27,106.27,157.21,227.64,113.77,271.08-27.13,27.13-84.64,17.45-149.9-19.53"/>
    </g>
  </g>
</svg>