<?xml version="1.0" encoding="UTF-8"?>
<svg id="Layer_2" data-name="Layer 2" xmlns="http://www.w3.org/2000/svg" viewBox="0 0 435.81 435.87">
  <defs>
    <style>
      .cls-1 {
        fill: none;
        stroke: #000;
        stroke-linecap: round;
        stroke-linejoin: round;
        stroke-width: 20px;
      }
    </style>
  </defs>
  <g id="Layer_9" data-name="Layer 9">
    <g>
      <circle class="cls-1" cx="217.93" cy="217.94" r="52"/>
      <path class="cls-1" d="M333.42,256.62c-11.38,13.44-23.69,26.82-36.84,39.97-106.27,106.27-227.64,157.21-271.08,113.77-27.29-27.29-17.33-85.34,20.2-151.07"/>
      <path class="cls-1" d="M178.58,332.86c-13.21-11.22-26.37-23.34-39.3-36.27C33.01,190.32-17.93,68.95,25.51,25.51,52.64-1.61,110.15,8.06,175.41,45.04"/>
      <path class="cls-1" d="M102.39,179.25c11.38-13.44,23.69-26.82,36.84-39.97C245.5,33.01,366.87-17.93,410.31,25.51c27.29,27.29,17.33,85.34-20.2,151.07"/>
      <path class="cls-1" d="M257.23,103.01c13.21,11.22,26.37,23.34,39.3,36.27,106.27,106.27,157.21,227.64,113.77,271.08-27.13,27.13-84.64,17.45-149.9-19.53"/>
    </g>
  </g>
</svg>