<?xml version="1.0" encoding="UTF-8"?>
<svg id="Layer_2" data-name="Layer 2" xmlns="http://www.w3.org/2000/svg" viewBox="0 0 427.81 427.87">
  <defs>
    <style>
      .cls-1 {
        fill: none;
        stroke: #000;
        stroke-linecap: round;
        stroke-linejoin: round;
        stroke-width: 12px;
      }
    </style>
  </defs>
  <g id="Layer_9" data-name="Layer 9">
    <g>
      <circle class="cls-1" cx="213.93" cy="213.94" r="52"/>
      <path class="cls-1" d="M329.42,252.62c-11.38,13.44-23.69,26.82-36.84,39.97-106.27,106.27-227.64,157.21-271.08,113.77-27.29-27.29-17.33-85.34,20.2-151.07"/>
      <path class="cls-1" d="M174.58,328.86c-13.21-11.22-26.37-23.34-39.3-36.27C29.01,186.32-21.93,64.95,21.51,21.51,48.64-5.61,106.15,4.06,171.41,41.04"/>
      <path class="cls-1" d="M98.39,175.25c11.38-13.44,23.69-26.82,36.84-39.97C241.5,29.01,362.87-21.93,406.31,21.51c27.29,27.29,17.33,85.34-20.2,151.07"/>
      <path class="cls-1" d="M253.23,99.01c13.21,11.22,26.37,23.34,39.3,36.27,106.27,106.27,157.21,227.64,113.77,271.08-27.13,27.13-84.64,17.45-149.9-19.53"/>
    </g>
  </g>
</svg>