<?xml version="1.0" encoding="UTF-8"?>
<svg id="Layer_2" data-name="Layer 2" xmlns="http://www.w3.org/2000/svg" viewBox="0 0 431.81 431.87">
  <defs>
    <style>
      .cls-1 {
        fill: none;
        stroke: #000;
        stroke-linecap: round;
        stroke-linejoin: round;
        stroke-width: 16px;
      }
    </style>
  </defs>
  <g id="Layer_9" data-name="Layer 9">
    <g>
      <circle class="cls-1" cx="215.93" cy="215.94" r="52"/>
      <path class="cls-1" d="M331.42,254.62c-11.38,13.44-23.69,26.82-36.84,39.97-106.27,106.27-227.64,157.21-271.08,113.77-27.29-27.29-17.33-85.34,20.2-151.07"/>
      <path class="cls-1" d="M176.58,330.86c-13.21-11.22-26.37-23.34-39.3-36.27C31.01,188.32-19.93,66.95,23.51,23.51,50.64-3.61,108.15,6.06,173.41,43.04"/>
      <path class="cls-1" d="M100.39,177.25c11.38-13.44,23.69-26.82,36.84-39.97C243.5,31.01,364.87-19.93,408.31,23.51c27.29,27.29,17.33,85.34-20.2,151.07"/>
      <path class="cls-1" d="M255.23,101.01c13.21,11.22,26.37,23.34,39.3,36.27,106.27,106.27,157.21,227.64,113.77,271.08-27.13,27.13-84.64,17.45-149.9-19.53"/>
    </g>
  </g>
</svg>